<svg width="640" height="440" viewBox="0 0 640 440" fill="none" xmlns="http://www.w3.org/2000/svg">
  <defs>
    <linearGradient id="bg" x1="40" y1="20" x2="620" y2="420" gradientUnits="userSpaceOnUse">
      <stop stop-color="#0A1120"/>
      <stop offset="1" stop-color="#111B34"/>
    </linearGradient>
    <linearGradient id="card" x1="120" y1="70" x2="530" y2="350" gradientUnits="userSpaceOnUse">
      <stop stop-color="#DEE3EA"/>
      <stop offset="1" stop-color="#BFC8D4"/>
    </linearGradient>
    <linearGradient id="accent" x1="100" y1="90" x2="550" y2="330" gradientUnits="userSpaceOnUse">
      <stop stop-color="#3B82F6"/>
      <stop offset="1" stop-color="#1D4ED8"/>
    </linearGradient>
  </defs>

  <rect x="12" y="12" width="616" height="416" rx="32" fill="url(#bg)"/>
  <circle cx="545" cy="92" r="56" fill="#2563EB" fill-opacity="0.3"/>
  <circle cx="112" cy="362" r="72" fill="#3B82F6" fill-opacity="0.2"/>

  <rect x="100" y="66" width="440" height="304" rx="24" fill="url(#card)"/>
  <rect x="132" y="100" width="376" height="46" rx="14" fill="#0F172A" fill-opacity="0.9"/>
  <rect x="152" y="117" width="148" height="12" rx="6" fill="#D7E6FF"/>
  <rect x="430" y="112" width="58" height="22" rx="11" fill="url(#accent)"/>

  <rect x="132" y="166" width="178" height="182" rx="16" fill="#EAF0F6"/>
  <rect x="330" y="166" width="178" height="86" rx="16" fill="#EAF0F6"/>
  <rect x="330" y="262" width="178" height="86" rx="16" fill="#EAF0F6"/>

  <rect x="152" y="192" width="138" height="10" rx="5" fill="#90B8F8"/>
  <rect x="152" y="210" width="96" height="10" rx="5" fill="#B2CAF1"/>
  <rect x="152" y="228" width="126" height="10" rx="5" fill="#B2CAF1"/>

  <rect x="350" y="190" width="136" height="14" rx="7" fill="#A7C4F8"/>
  <rect x="350" y="210" width="82" height="10" rx="5" fill="#CBD8EA"/>
  <rect x="350" y="286" width="136" height="14" rx="7" fill="#79A8F6"/>
  <rect x="350" y="306" width="102" height="10" rx="5" fill="#CBD8EA"/>

  <path d="M183 321C210 296 238 272 265 247" stroke="#2563EB" stroke-width="8" stroke-linecap="round"/>
  <circle cx="185" cy="321" r="12" fill="#1D4ED8"/>
  <circle cx="224" cy="284" r="9" fill="#2563EB"/>
  <circle cx="265" cy="247" r="12" fill="#3B82F6"/>
</svg>
